<svg id="calculator" xmlns="http://www.w3.org/2000/svg" width="54" height="54" viewBox="0 0 54 54">
  <g id="Groupe_7208" data-name="Groupe 7208">
    <path id="Tracé_7351" data-name="Tracé 7351" d="M1.392,269.085a4.731,4.731,0,0,0,3.354,1.392H27.105l1.582-2.306V246.022l-1.582-2.44L24.929,242H1.778L0,243.582V265.73A4.731,4.731,0,0,0,1.392,269.085Z" transform="translate(0 -216.477)" fill="#1689fc"/>
    <path id="Tracé_7352" data-name="Tracé 7352" d="M270.477,27.105V4.746A4.751,4.751,0,0,0,265.73,0H243.582L242,2.177V24.654l1.582,2.452,2.044,1.582h22.412Z" transform="translate(-216.477)" fill="#1689fc"/>
  </g>
  <path id="Tracé_7353" data-name="Tracé 7353" d="M27.105,0H4.746A4.751,4.751,0,0,0,0,4.746V27.105H27.105Z" fill="#81c8ee"/>
  <g id="Groupe_7209" data-name="Groupe 7209" transform="translate(6.306 6.343)">
    <path id="Tracé_7354" data-name="Tracé 7354" d="M69.958,309.72l5.21-5.21a1.582,1.582,0,0,0-2.237-2.237l-5.21,5.21-5.21-5.21a1.582,1.582,0,0,0-2.237,2.237l5.21,5.21-5.21,5.21a1.582,1.582,0,0,0,2.237,2.237l5.21-5.21,5.21,5.21a1.582,1.582,0,0,0,2.237-2.237Z" transform="translate(-59.788 -276.302)" fill="#e1e1e4"/>
    <path id="Tracé_7355" data-name="Tracé 7355" d="M74.363,66.453H69.617V61.707a1.582,1.582,0,0,0-3.164,0v4.746H61.707a1.582,1.582,0,0,0,0,3.164h4.746v4.746a1.582,1.582,0,0,0,3.164,0V69.617h4.746A1.582,1.582,0,0,0,74.363,66.453Z" transform="translate(-60.103 -60.14)" fill="#e1e1e4"/>
  </g>
  <path id="Tracé_7356" data-name="Tracé 7356" d="M316.363,123.164H303.707a1.582,1.582,0,0,1,0-3.164h12.656A1.582,1.582,0,0,1,316.363,123.164Z" transform="translate(-270.274 -107.344)" fill="#d9d8db"/>
  <path id="Tracé_7357" data-name="Tracé 7357" d="M282.5,282.5a4.731,4.731,0,0,0,1.392-3.354V257H257v26.895h22.148A4.731,4.731,0,0,0,282.5,282.5Z" transform="translate(-229.895 -229.895)" fill="#fe52a2"/>
  <g id="Groupe_7210" data-name="Groupe 7210" transform="translate(31.866 35.016)">
    <path id="Tracé_7358" data-name="Tracé 7358" d="M316.363,335.164H303.707a1.582,1.582,0,0,1,0-3.164h12.656A1.582,1.582,0,0,1,316.363,335.164Z" transform="translate(-302.14 -332)" fill="#d9d8db"/>
    <path id="Tracé_7359" data-name="Tracé 7359" d="M316.363,395.164H303.707a1.582,1.582,0,0,1,0-3.164h12.656A1.582,1.582,0,0,1,316.363,395.164Z" transform="translate(-302.14 -385.672)" fill="#d9d8db"/>
  </g>
</svg>
